<svg id="OBJECTS" xmlns="http://www.w3.org/2000/svg" viewBox="0 0 395.05 265.92"><defs><style>.cls-1{fill:#ef8af7;}.cls-2{fill:#fff;}.cls-3{fill:#e6e6e6;}.cls-4{fill:#157690;}.cls-20,.cls-21,.cls-22,.cls-23,.cls-24,.cls-5,.cls-7,.cls-8{fill:none;stroke-miterlimit:10;}.cls-5{stroke:#fff;}.cls-6{fill:#fd8f1d;}.cls-7,.cls-8{stroke:#b3b3b3;}.cls-8{stroke-dasharray:7.18 7.18;}.cls-9{fill:#ffa320;}.cls-10{fill:#eb4334;}.cls-11{fill:#3943b3;}.cls-12{fill:#ffc69a;}.cls-13{fill:#daa184;}.cls-14{fill:#ffb939;}.cls-15{fill:#10b4be;}.cls-16{fill:#411809;}.cls-17{fill:#8e4616;}.cls-18{fill:#ffb780;}.cls-19{opacity:0.1;}.cls-20,.cls-23{stroke:#3943b3;}.cls-20,.cls-21{stroke-width:2px;}.cls-21,.cls-22{stroke:#10b4be;}.cls-21,.cls-22,.cls-23{stroke-linecap:round;}.cls-24{stroke:#157690;}.cls-25{fill:#008787;}.cls-26{fill:#068c8c;}</style></defs><path class="cls-1" d="M67.83,41C113.47,1.11,172.55,15.07,175,15.69c37.33,9.48,35.65,30.76,76.36,46.72C310.78,85.71,342,51.24,376.06,77.73c26.63,20.71,37.78,65.27,30.12,98.81-14.16,62-95.38,98.07-156.91,89.61-58.76-8.08-74.24-53.23-139.41-52.08-42.14.73-56.52,20-72.85,7.65C5.65,198.06,10.67,90.88,67.83,41Z" transform="translate(-13.5 -12.82)"/><rect class="cls-2" x="64.99" y="40.99" width="268.48" height="198.41" rx="9.6"/><path class="cls-3" d="M336.62,54.5h-246C84.15,54.23,78.86,59,79.05,67.11V71.5l267.39-.27v-5C346.44,60,342,54.5,336.62,54.5Z" transform="translate(-13.5 -12.82)"/><rect class="cls-4" x="87.01" y="147.49" width="94.61" height="36.63" rx="2.33"/><path class="cls-2" d="M128.58,179.15c0,5.49-4.07,9.95-9.09,9.95s-9.1-4.46-9.1-9.95,4.08-9.94,9.1-9.94S128.58,173.66,128.58,179.15Z" transform="translate(-13.5 -12.82)"/><line class="cls-5" x1="122.74" y1="167.37" x2="170.61" y2="167.37"/><line class="cls-5" x1="122.74" y1="160.6" x2="145.68" y2="160.6"/><line class="cls-5" x1="122.74" y1="173.65" x2="170.61" y2="173.65"/><path class="cls-6" d="M332,93.08v-5a5.47,5.47,0,0,0-5.21-5.7H227.14a5.47,5.47,0,0,0-5.21,5.7v48.8Z" transform="translate(-13.5 -12.82)"/><polygon class="cls-6" points="263.45 113.69 244.79 121.84 229 78.63 247.65 70.47 263.45 113.69"/><rect class="cls-7" x="208.43" y="69.56" width="110.03" height="140.08" rx="5.23"/><polygon class="cls-6" points="256.62 129.49 237.96 137.65 222.16 94.43 240.82 86.28 256.62 129.49"/><polygon class="cls-6" points="241.89 123.11 223.23 131.26 215.78 110.86 234.43 102.71 241.89 123.11"/><polygon class="cls-6" points="316.56 104.79 297.9 112.94 287.28 83.91 305.94 75.76 316.56 104.79"/><rect class="cls-3" x="87.32" y="69.56" width="94.29" height="14.98"/><rect class="cls-3" x="87.32" y="193.53" width="94.29" height="5.78"/><rect class="cls-3" x="87.32" y="204.3" width="94.29" height="5.78"/><path class="cls-8" d="M192.78,150.89H102.84a2.33,2.33,0,0,1-2.33-2.33v-32a2.33,2.33,0,0,1,2.33-2.33h89.94a2.33,2.33,0,0,1,2.33,2.33v32a2.33,2.33,0,0,1-2.33,2.33Z" transform="translate(-13.5 -12.82)"/><ellipse class="cls-9" cx="309.3" cy="50.92" rx="2.19" ry="2.4"/><ellipse class="cls-10" cx="316.62" cy="50.92" rx="2.19" ry="2.4"/><ellipse class="cls-11" cx="323.93" cy="50.92" rx="2.19" ry="2.4"/><path class="cls-2" d="M310.86,67.7h-221A4.52,4.52,0,0,1,85.55,63h0a4.52,4.52,0,0,1,4.31-4.7h221a4.52,4.52,0,0,1,4.31,4.7h0A4.52,4.52,0,0,1,310.86,67.7Z" transform="translate(-13.5 -12.82)"/><rect class="cls-7" x="64.99" y="40.99" width="268.48" height="198.41" rx="9.6"/><rect class="cls-4" x="51.59" y="101.44" width="94.61" height="36.63" rx="2.33"/><path class="cls-2" d="M93.16,133.1c0,5.49-4.07,9.94-9.09,9.94S75,138.59,75,133.1s4.08-9.94,9.1-9.94S93.16,127.61,93.16,133.1Z" transform="translate(-13.5 -12.82)"/><line class="cls-5" x1="87.32" y1="121.32" x2="135.19" y2="121.32"/><line class="cls-5" x1="87.32" y1="114.55" x2="110.26" y2="114.55"/><line class="cls-5" x1="87.32" y1="127.6" x2="135.19" y2="127.6"/><path class="cls-9" d="M55.05,267.14a53.31,53.31,0,0,1,8.85,3.62c2.33,1.41,2.62,2.59-.26,2.6a74.58,74.58,0,0,1-10.7-.52c-1.78-.3-1-4.87-.74-5.65Z" transform="translate(-13.5 -12.82)"/><polygon class="cls-12" points="41.03 254.33 41.64 251.8 38.56 252.2 38.7 254.36 41.03 254.33"/><path class="cls-4" d="M65.69,272.77c-3.2-.12-9.92-.42-11.67-.88a4.74,4.74,0,0,1-2.21-1.24c.06,1.1.35,2.06,1.13,2.19a74.58,74.58,0,0,0,10.7.52C64.89,273.36,65.54,273.14,65.69,272.77Z" transform="translate(-13.5 -12.82)"/><path class="cls-13" d="M41,179.17s-.74-3.82,5.47-8.9a97.66,97.66,0,0,0,9.58-8.77L62,139.19l2,1.05s.13,17.51-.77,22.71S42.62,190.7,41,179.17Z" transform="translate(-13.5 -12.82)"/><path class="cls-9" d="M57.16,156l6.69,1.07-.25,6.11s-9.78,16.68-16.14,19.31-10.19-1.43-8.63-4.33S55,161.67,55,161.67Z" transform="translate(-13.5 -12.82)"/><polygon class="cls-14" points="50.5 145.85 51.02 142.24 43.1 140.87 42.58 144.48 50.5 145.85"/><path class="cls-13" d="M64,145.32S60.13,135,61.26,133.79c0,0,3.61,6.66,4.71,9.47" transform="translate(-13.5 -12.82)"/><path class="cls-6" d="M18.4,260.81A59.89,59.89,0,0,1,24.2,269c1.31,2.54,1,3.72-1.47,2.07a83.44,83.44,0,0,1-8.86-6.56c-1.37-1.28,1.45-4.75,2.07-5.24Z" transform="translate(-13.5 -12.82)"/><polygon class="cls-12" points="4.45 247.69 6.17 245.89 3.36 244.47 2.45 246.39 4.45 247.69"/><path class="cls-15" d="M53.1,205.21l-12.18-7.43s2,28.1,9.83,40.51c0,0,.06,22.6,1.42,27.48l2.85-.08S59.37,240,59,235.88C58.22,228.34,57.5,217.48,53.1,205.21Z" transform="translate(-13.5 -12.82)"/><path class="cls-16" d="M40.19,153.47s-4.87,2.61-5.26,12.43S33,176.08,33,176.08a14.15,14.15,0,0,0,14,0Z" transform="translate(-13.5 -12.82)"/><path class="cls-12" d="M46.08,154.39c2,2,2.9,5.12,3,8.12.1,3.26-4.47,3.7-7.06,2.12a7.68,7.68,0,0,1-3.49-7.23C39.1,153.93,43.46,151.77,46.08,154.39Z" transform="translate(-13.5 -12.82)"/><path class="cls-12" d="M43.41,158.38l-4.8.81,1.8,12.71a3.1,3.1,0,0,0,3.48,2.78h0a3.34,3.34,0,0,0,2.48-4.15Z" transform="translate(-13.5 -12.82)"/><path class="cls-16" d="M43.92,153.72s1.19,7.11-5.32,8.85c-4.54,1.22-4.41-11.14,2-11.4,9-.36,7,5.3,7,5.3S45.41,153,43.92,153.72Z" transform="translate(-13.5 -12.82)"/><polygon class="cls-13" points="31.9 153.71 28.25 151.96 31.65 152.63 31.9 153.71"/><path class="cls-15" d="M50.81,199.38,36,203.7s-4.18,6.19-2.64,30.29c0,0-13,11.91-16.58,23.51l2.4,1.72S37.4,241.39,40,238.37C43,234.74,49,222.67,50.81,199.38Z" transform="translate(-13.5 -12.82)"/><path class="cls-6" d="M49.24,171.77a4.31,4.31,0,0,0-2.54-3.15c-2.75-1.1-9.43-1.16-9.5,8.72C37.08,196.77,36,203.7,36,203.7s3.56,3.39,17.13,1.51l-1.79-12.27,1.59-3.77a13.16,13.16,0,0,0-.28-9.21Z" transform="translate(-13.5 -12.82)"/><path class="cls-12" d="M43.72,180s-.74-3.82,5.48-8.9a97.66,97.66,0,0,0,9.58-8.77L64.67,140l2,1.06s.13,17.51-.76,22.71S45.34,191.48,43.72,180Z" transform="translate(-13.5 -12.82)"/><path class="cls-12" d="M64.2,142.05s-1.36-6.29-.22-7.48c0,0,1.1,2.61,2.2,5.43.34.88,3.82,3.62,2,3.33A19.6,19.6,0,0,1,64.2,142.05Z" transform="translate(-13.5 -12.82)"/><path class="cls-12" d="M47,155.6a7.71,7.71,0,0,0,2.66,2,3,3,0,0,1-1.14,1.72Z" transform="translate(-13.5 -12.82)"/><path class="cls-4" d="M24.76,271.69c-2.67-1.94-8.24-6-9.52-7.43A5.59,5.59,0,0,1,14,261.94c-.48,1-.68,2-.08,2.52A83.44,83.44,0,0,0,22.73,271C23.8,271.73,24.46,271.91,24.76,271.69Z" transform="translate(-13.5 -12.82)"/><path class="cls-12" d="M16.17,259.36s3.24,6.13,4.68,4.55L18.45,260Z" transform="translate(-13.5 -12.82)"/><path class="cls-12" d="M52.55,267.09s5.68,3.48,6.09,1.29l-4-1.83Z" transform="translate(-13.5 -12.82)"/><path class="cls-6" d="M60.36,156.27l6.11,1.22-.37,7.71S57,180.12,50.66,182.76s-10.19-1.44-8.63-4.34S58.22,162,58.22,162Z" transform="translate(-13.5 -12.82)"/><polygon class="cls-14" points="53.7 146.12 54.22 142.51 46.31 141.14 45.78 144.76 53.7 146.12"/><path class="cls-15" d="M53.1,205.21l1.59,4.9L44.44,222.47l1-16.7A45.19,45.19,0,0,0,53.1,205.21Z" transform="translate(-13.5 -12.82)"/><path class="cls-4" d="M41.21,232.16c-2.1,2.36-2.76,3.42-3.05,4.81-.24,1.13,0,1.27-.27,2-.79,1.86-3,1.48-5.74,2.84-2,1-3.31,2.6-5.92,5.79-1.31,1.58-1.19,1.67-3.32,4.61-2.53,3.48-4.07,5.24-4.79,6.31l1,.74S37.4,241.39,40,238.37c1.38-1.62,3.34-5,5.24-10.23C44.85,228.06,43.62,229.44,41.21,232.16Z" transform="translate(-13.5 -12.82)"/><rect class="cls-4" x="51.09" y="263.84" width="4.78" height="2.07" transform="translate(93.47 516.92) rotate(180)"/><polygon class="cls-4" points="1.93 244.79 6.08 247.4 7.02 245.61 2.88 243 1.93 244.79"/><path class="cls-6" d="M34.72,161.38l11-9.46a6.58,6.58,0,0,0-9.8-1.25,8.11,8.11,0,0,0-1.15,10.71" transform="translate(-13.5 -12.82)"/><path class="cls-9" d="M38.22,149.34a6.68,6.68,0,0,0-2.35,1.33,8.11,8.11,0,0,0-1.15,10.71l2.85-2.46A8.17,8.17,0,0,1,38.22,149.34Z" transform="translate(-13.5 -12.82)"/><polygon class="cls-9" points="21.7 149.22 20.51 147.47 33.48 136.89 34.67 138.64 21.7 149.22"/><path class="cls-15" d="M52.9,189.17a13.21,13.21,0,0,0,.17-7.87,14.64,14.64,0,0,1-10.34.42C40.49,173,44,169,44.92,168.19a7.09,7.09,0,0,0-2.83.22c-1.41,2.2-2.85,6.15-1.64,12.33a13.65,13.65,0,0,1-3.25-2.33h0C37,197,35.54,204.55,35.54,204.55s4,2.54,17.56.66l-1.79-12.27Z" transform="translate(-13.5 -12.82)"/><path class="cls-4" d="M59,235.88c-.75-7.54-1.47-18.4-5.87-30.67l-1.79-12.27,1.59-3.77a13.21,13.21,0,0,0,.17-7.87A16.33,16.33,0,0,1,51,182a15.89,15.89,0,0,1-1,8,14.64,14.64,0,0,0-1.44,4.31,14.17,14.17,0,0,0,.36,5.5c1.53,6.49,3,11.18,3,11.18,2.12,6.53,3.17,9.79,3.23,11.37.2,6-2.28,9.29-.18,12.36,1,1.48,2.42,1.94,2.51,3.53s-1.13,2-2,3.92c-1.15,2.59-.13,4.47,0,8.24s-.84,4.29-1.26,8.44a39.43,39.43,0,0,0,0,6.87l.75,0S59.37,240,59,235.88Z" transform="translate(-13.5 -12.82)"/><polygon class="cls-10" points="118.26 257.33 94.8 257.33 102.44 215.06 110.62 215.06 118.26 257.33"/><rect class="cls-10" x="89.25" y="255.23" width="33.48" height="4.37"/><polygon class="cls-10" points="118.26 257.33 94.8 257.33 102.44 215.06 110.62 215.06 118.26 257.33"/><polygon class="cls-2" points="99.2 232.97 113.86 232.97 112.66 226.35 100.4 226.35 99.2 232.97"/><polygon class="cls-2" points="96.41 248.47 116.66 248.47 115.46 241.84 97.6 241.84 96.41 248.47"/><path class="cls-4" d="M383.41,263.87s-9.19,5.53-12.21,5.57-.79,1.45,2.51,1.79c2.61.27,7.82-.55,10.87-1.19.23-.05,1-.86,1-.86l.21.78a8.75,8.75,0,0,0,1.58-.14,39.57,39.57,0,0,0-.65-6Z" transform="translate(-13.5 -12.82)"/><polygon class="cls-17" points="369.91 251.05 370.03 248.36 373.29 248.54 373.18 251.02 369.91 251.05"/><path class="cls-15" d="M383.3,183.41l10.87,2s-3.31,31.78-6.75,44.16c0,0,2.26,21.3-.15,32.81l-4.31.22s-3.67-27.22-4.67-31.82C377.09,225.3,378.58,212,383.3,183.41Z" transform="translate(-13.5 -12.82)"/><polygon class="cls-4" points="368.51 247.13 368.83 250.21 374.23 250.07 374.52 247.3 368.51 247.13"/><path class="cls-4" d="M396.24,265s-9.18,5.52-12.21,5.56-.78,1.46,2.51,1.8c2.61.26,7.83-.55,10.87-1.19.24-.05,1-.87,1-.87l.2.79a8.66,8.66,0,0,0,1.58-.14,39.58,39.58,0,0,0-.65-6Z" transform="translate(-13.5 -12.82)"/><polygon class="cls-17" points="382.74 252.13 382.87 249.45 386.12 249.63 386.01 252.11 382.74 252.13"/><path class="cls-15" d="M388.58,185.28l11.53,9.83s3.79,6.11-2,34.84a77.24,77.24,0,0,1,1.81,33.48l-4.26.71s-5.15-29.29-6.57-33.75C387.37,225,386,210.17,388.58,185.28Z" transform="translate(-13.5 -12.82)"/><polygon class="cls-4" points="381.07 248.47 381.63 251.51 386.99 250.9 387.08 248.12 381.07 248.47"/><polygon class="cls-15" points="374.23 182.09 367.98 181.91 366.98 188.48 376.04 205.47 374.23 182.09"/><path class="cls-11" d="M383.58,271" transform="translate(-13.5 -12.82)"/><path class="cls-6" d="M394.41,159.5s-4.28-4.22-9.49,4.28a108.11,108.11,0,0,1-8.63,12.49L356.5,164.34l-2.07,4.6s17.84,22.3,23.5,20.8S407.19,160.92,394.41,159.5Z" transform="translate(-13.5 -12.82)"/><path class="cls-18" d="M354.56,169.1s-9.58-8.07-5-6.65c2.08.64,3.9,2.36,4.63,1.65s-.81-1.33-1.07-2.88c-.24-1.39,4.27,3.84,4.27,3.84Z" transform="translate(-13.5 -12.82)"/><g class="cls-19"><polygon points="347.75 158.49 355.96 166.87 346.68 162.12 347.75 158.49"/></g><g class="cls-19"><polygon points="362.15 171.63 372.05 161.83 372.05 164.42 367.1 173.07 362.15 171.63"/></g><polygon class="cls-14" points="339.84 156.12 341.87 157.8 345.65 152.75 343.62 151.07 339.84 156.12"/><path class="cls-6" d="M390.28,156.09c3.31-1.32,12.68-2.19,14.13,6.56,1.31,8-1.47,14.94-2.56,20.61-.78,4.05-1.2,10.14-1.2,10.14s-6.14,7.93-17.56,4.38l.74-13.58.78-7.52c-.64-8.53-.45-9.58.94-13.87.58-1.8,2.71-5.66,4.27-6.5A4.81,4.81,0,0,1,390.28,156.09Z" transform="translate(-13.5 -12.82)"/><path class="cls-15" d="M385.24,170l-1-.8c0-5.46,2.05-13,10.08-13.68h.26C384.27,157.75,385.24,169.9,385.24,170Z" transform="translate(-13.5 -12.82)"/><path class="cls-17" d="M393.22,141.91l5.95,0-.72,13.55a1.51,1.51,0,0,1-.44,1.13,4.54,4.54,0,0,1-4.5,1c-2-.53-.55-1.52-.26-4Z" transform="translate(-13.5 -12.82)"/><path class="cls-17" d="M392.48,138.85c-2.88,4-3.21,7.45-3.12,11.07.12,4.59,5.71,4.64,9.26,2.23a9.55,9.55,0,0,0,3.86-9.83C401.47,137.46,395.59,134.58,392.48,138.85Z" transform="translate(-13.5 -12.82)"/><g class="cls-19"><polygon points="379.47 142.05 382.85 140.56 379.73 140.91 379.47 142.05"/></g><path class="cls-17" d="M390.57,143.22a16.74,16.74,0,0,0-2.44,2.81,3.12,3.12,0,0,0,1.58,1.57Z" transform="translate(-13.5 -12.82)"/><path class="cls-16" d="M403.12,141.61c-.23-6.26-10.17-6.2-11.37-5.18a2.93,2.93,0,0,0-.45,4.21l.49-.4a1.82,1.82,0,0,1,.28-.13c1.46.23,6.59,1.38,5,5.79-.39,1.11.48,1.63,1.52,1.69a19.94,19.94,0,0,1-.11,4.21C398.35,152.84,403.48,151.77,403.12,141.61Z" transform="translate(-13.5 -12.82)"/><path class="cls-15" d="M361.66,176.68l-1.41,1.74-19.63-19a1,1,0,0,1-.07-1.27l.87-1.07Z" transform="translate(-13.5 -12.82)"/><path class="cls-2" d="M360.8,170.36a3,3,0,0,1,.89,2.2l0,4.12L341.41,157.1l5.84,1a3.47,3.47,0,0,1,1.84.94Z" transform="translate(-13.5 -12.82)"/><path class="cls-17" d="M395.24,148.45c.46.76,1.64.79,2.63.07a2.19,2.19,0,0,0,1-2.68c-.45-.75-1.63-.78-2.63-.06A2.2,2.2,0,0,0,395.24,148.45Z" transform="translate(-13.5 -12.82)"/><path class="cls-15" d="M400.7,196.9a135.8,135.8,0,0,1,1.15-13.64c.43-2.26,1.14-4.74,1.75-7.4-7.38-.74-14.47-4-19.33-6.82,0,1.74.07,4,.34,7.64l-1.52,7.51L381,198C392.4,201.51,400.7,196.9,400.7,196.9Z" transform="translate(-13.5 -12.82)"/><path class="cls-20" d="M393.23,156.51" transform="translate(-13.5 -12.82)"/><path class="cls-15" d="M397.05,205.61l-3.84-1.14c5-20,7.38-38.75,5.28-40.91-1.37-1.35-2.26-1.28-2.81-1.11-2.91.88-5.72,7.82-6.63,11l-3-1.28c.35-1.24,2.79-12.2,8.58-14,1.55-.47,3.93-.49,6.54,2.07C406.33,165.39,400,193.68,397.05,205.61Z" transform="translate(-13.5 -12.82)"/><path class="cls-6" d="M396,161s-3.89,0-8.1,9.12-6.41,11.56-6.41,11.56l-19.86-9.58L358.2,177s21.24,19.81,26.2,16.46C393.64,187.18,408.87,160.67,396,161Z" transform="translate(-13.5 -12.82)"/><path class="cls-17" d="M358.2,177s-4.53.41-5.6-2.53c-.69-1.88-3.11-6.06-.72-4.13,1.51,1.22,3.56,3.47,4.18,2.53s-2.54-1.28-1.73-3.1l5.33,3.26Z" transform="translate(-13.5 -12.82)"/><polygon class="cls-14" points="343.14 165.4 345.4 166.69 349.17 159.39 346.92 158.09 343.14 165.4"/><path class="cls-6" d="M403.81,143.67l-12.44-6.91a6.71,6.71,0,0,1,9.38-3.35,8,8,0,0,1,3.06,10.26" transform="translate(-13.5 -12.82)"/><path class="cls-9" d="M398.21,132.62a6.52,6.52,0,0,1,2.54.79,8,8,0,0,1,3.06,10.26l-3.24-1.8A8.06,8.06,0,0,0,398.21,132.62Z" transform="translate(-13.5 -12.82)"/><polygon class="cls-9" points="389.96 131.6 390.81 129.63 376.19 122.05 375.33 124.02 389.96 131.6"/><polygon class="cls-10" points="357.09 257.33 333.63 257.33 341.27 215.06 349.45 215.06 357.09 257.33"/><rect class="cls-10" x="328.08" y="255.23" width="33.48" height="4.37"/><polygon class="cls-10" points="357.09 257.33 333.63 257.33 341.27 215.06 349.45 215.06 357.09 257.33"/><polygon class="cls-2" points="338.04 232.97 352.69 232.97 351.5 226.35 339.23 226.35 338.04 232.97"/><polygon class="cls-2" points="335.24 248.47 355.49 248.47 354.3 241.84 336.43 241.84 335.24 248.47"/><path class="cls-15" d="M195.16,278.74a1,1,0,0,0,1-.89l17.76-94.7a1.12,1.12,0,0,0-.8-1.32,1,1,0,0,0-1.21.87l-17.75,94.7a1.13,1.13,0,0,0,.8,1.32Z" transform="translate(-13.5 -12.82)"/><path class="cls-15" d="M212.09,192.27h25.62a1.12,1.12,0,0,0,0-2.24H212.09a1.12,1.12,0,0,0,0,2.24Z" transform="translate(-13.5 -12.82)"/><path class="cls-15" d="M209.59,204.45h25.62a1.12,1.12,0,0,0,0-2.24H209.59a1.12,1.12,0,0,0,0,2.24Z" transform="translate(-13.5 -12.82)"/><path class="cls-15" d="M207.44,216.63h25.62a1.12,1.12,0,0,0,0-2.24H207.44a1.12,1.12,0,0,0,0,2.24Z" transform="translate(-13.5 -12.82)"/><path class="cls-15" d="M205.12,228.81h25.62a1.12,1.12,0,0,0,0-2.24H205.12a1.12,1.12,0,0,0,0,2.24Z" transform="translate(-13.5 -12.82)"/><path class="cls-15" d="M202.93,241h25.62a1.12,1.12,0,0,0,0-2.24H202.93a1.12,1.12,0,0,0,0,2.24Z" transform="translate(-13.5 -12.82)"/><path class="cls-15" d="M200.76,253.17h25.62a1.12,1.12,0,0,0,0-2.24H200.76a1.12,1.12,0,0,0,0,2.24Z" transform="translate(-13.5 -12.82)"/><path class="cls-15" d="M198.55,265.35h25.61a1.12,1.12,0,0,0,0-2.24H198.55a1.12,1.12,0,0,0,0,2.24Z" transform="translate(-13.5 -12.82)"/><path class="cls-15" d="M222.58,278.74a1,1,0,0,0,1-.89l17.76-94.7a1.12,1.12,0,0,0-.8-1.32,1,1,0,0,0-1.2.87l-17.76,94.7a1.13,1.13,0,0,0,.8,1.32Z" transform="translate(-13.5 -12.82)"/><line class="cls-21" x1="293.5" y1="109.54" x2="298.75" y2="124.13"/><polyline class="cls-22" points="279.7 106.05 281.41 109.32 293.28 108.87 301.99 100.39 300.69 95.61"/><line class="cls-23" x1="301.67" y1="94.72" x2="278.56" y2="105.89"/><path class="cls-9" d="M312,114.14l-13.51,6.2a3.76,3.76,0,0,1-5-2.25h0a4.37,4.37,0,0,1,2.06-5.5l13.51-6.2a3.74,3.74,0,0,1,5,2.25h0A4.36,4.36,0,0,1,312,114.14Z" transform="translate(-13.5 -12.82)"/><path class="cls-14" d="M297.67,118.69l13.51-6.2a4.3,4.3,0,0,0,2.22-4.89,3.62,3.62,0,0,0-4.43-1.21l-13.51,6.2a4.3,4.3,0,0,0-2.22,4.89A3.64,3.64,0,0,0,297.67,118.69Z" transform="translate(-13.5 -12.82)"/><polygon class="cls-15" points="281.2 241.31 263.65 241.31 260.43 215.06 284.43 215.06 281.2 241.31"/><path class="cls-24" d="M275.49,228.54c0-6.3,4.67-11.41,10.43-11.41s10.43,5.11,10.43,11.41" transform="translate(-13.5 -12.82)"/><path class="cls-6" d="M293,228.75a1,1,0,0,0,.14-.86H278.72c-.28,1.79.4,3.74,1,3.83s1.23-2.67,2.12-2.6,1.78,1.93,1.06,6.4c-.64,3.95,1.56,4.78,1.8,4.73,2.25-.47.79-9.48,2.78-10.11.76-.24,1.5,1,2.51.51.83-.38.86-1.46,1.86-1.76C292.46,228.7,292.79,229,293,228.75Z" transform="translate(-13.5 -12.82)"/><path class="cls-14" d="M308.2,204.29l11.29,2.19,8.5-4.81s-.85-6.56-.8-8.4c.11-4.4,2.05-14.31-.81-21.37-2.11-5.2-6-2.84-11-1.13l-5.58.67s-8.95-5.91-2.7,21.36C307.82,195.9,308.2,204.29,308.2,204.29Z" transform="translate(-13.5 -12.82)"/><path class="cls-17" d="M312.87,151.89c-2.22,2.48-3.15,6.33-3.09,9.92.07,3.89,5.55,4.09,8.55,2a9.28,9.28,0,0,0,3.73-8.88C321.17,150.84,315.83,148.58,312.87,151.89Z" transform="translate(-13.5 -12.82)"/><path class="cls-17" d="M311.71,153.68a7.63,7.63,0,0,1-2.49,2.11,2.9,2.9,0,0,0,1.19,1.61Z" transform="translate(-13.5 -12.82)"/><path class="cls-6" d="M304.89,173.74l-2.87,12-1.8,6.2-11,21.09,3.42,2.5,13.85-21.24,2.12-6.6,8.23-17.51c.66-2.05-3.35-2-5.23-2.7S306.25,169.45,304.89,173.74Z" transform="translate(-13.5 -12.82)"/><path class="cls-17" d="M289.72,212.13s-4.15,5-1.31,4.68c2-.24.55-.56.55-.56s-2.83,2.72-1.58,2.67,3.88,1.16,4.52-.7c.78-2.26,1.14-3.58,1.14-3.58Z" transform="translate(-13.5 -12.82)"/><polygon class="cls-14" points="281.59 200.56 280.11 202.95 275.21 199.31 276.7 196.92 281.59 200.56"/><polygon class="cls-6" points="304.19 146.25 296.73 123.41 300.5 121.59 310.77 145.13 311.82 152.04 304.98 152.7 304.19 146.25"/><path class="cls-14" d="M324.17,181.45A3.67,3.67,0,0,1,320,178.2l-1.55-12.67,6.85-.67,2.17,11.08C327.82,178.09,326.13,181.09,324.17,181.45Z" transform="translate(-13.5 -12.82)"/><path class="cls-17" d="M311.39,136.63s-4.28-5-2.48-5.94l1.32,2.37s-1.56-6.09-.33-5.81,3.89,2,3.61,4c-.33,2.35-.51,4.32-.51,4.32Z" transform="translate(-13.5 -12.82)"/><polygon class="cls-14" points="297.17 125.95 296.19 123.27 300.97 121.18 301.95 123.87 297.17 125.95"/><polygon class="cls-12" points="298.51 149.11 299.03 161.96 305.46 159.71 302.43 147.98 298.51 149.11"/><path class="cls-15" d="M314.07,198.56c.34-14.73-1.38-26.38-2.47-31.09a3.41,3.41,0,0,0-2.9.78c1,4.41,2.73,15,2.38,30.23Z" transform="translate(-13.5 -12.82)"/><path class="cls-15" d="M329.85,212.55c1.43-11.18-2.51-18.74-2.51-18.74-6.61,4-19.64,3.1-19.64,3.1l-1.84,18.87-1,20.92A125.34,125.34,0,0,0,309.77,264l5.1-.9a154.09,154.09,0,0,0-.81-26.79s2.56-11.26,4-17.06c.09-.39,1.6-1,1.68-1.32C319.7,217.9,327.29,217.46,329.85,212.55Z" transform="translate(-13.5 -12.82)"/><path class="cls-15" d="M321.25,263.79l4.46-.72a92.54,92.54,0,0,0,0-26.46s3.54-8.55,3.84-22.1c.12-.67.21-1.32.29-2-2.56,4.91-10.15,5.35-10.15,5.35l-3.27,19.75S317.77,247.14,321.25,263.79Z" transform="translate(-13.5 -12.82)"/><path class="cls-25" d="M322.22,217.51a17,17,0,0,1-2.52.39l-3.27,19.75s1.33,9.38,4.76,25.85a3.22,3.22,0,0,0,1.17-1.38c.45-1.14-.23-1.87-1.08-5.49-.53-2.27-.25-1.93-1.07-6.48a57.53,57.53,0,0,0-1.26-6.08c-.85-2.39-1.71-3.4-1.26-4.7s1.61-1.46,1.62-2.55c0-.93-.82-1.29-1.26-2.16-1-2.06,1-5.27,1.62-6.28C320.89,226.29,322.09,223,322.22,217.51Z" transform="translate(-13.5 -12.82)"/><polygon class="cls-17" points="296.27 251.14 297.24 254.57 300.79 254.27 300.77 250.41 296.27 251.14"/><path class="cls-6" d="M304.27,272.5s.05-2.3,4-3a1.27,1.27,0,0,0,1-2.07l3.91-1.31-3.72,7.16Z" transform="translate(-13.5 -12.82)"/><path class="cls-26" d="M313.82,266.05c-2.63,0-2.44,2.44-2.84,4h0a6.33,6.33,0,0,1-5.81,2.58l3.66.55a8.37,8.37,0,0,0,3.62-.25l2.21-.65c1.28-.77,2.68-6.07-.62-6.22Z" transform="translate(-13.5 -12.82)"/><path class="cls-9" d="M304.52,272.54c.23,0,.44.06.65.08C304.37,272.5,304,272.45,304.52,272.54Z" transform="translate(-13.5 -12.82)"/><polygon class="cls-17" points="307.75 250.96 308.67 254.41 312.22 254.12 312.21 250.25 307.75 250.96"/><path class="cls-6" d="M315.71,272.35s0-2.3,4-3a1.28,1.28,0,0,0,1-2.08l3.9-1.31-3.71,7.16Z" transform="translate(-13.5 -12.82)"/><path class="cls-26" d="M325.25,265.89c-2.63,0-2.44,2.44-2.83,4h0a6.35,6.35,0,0,1-5.82,2.57l3.66.55a8.37,8.37,0,0,0,3.62-.25l2.21-.65c1.28-.77,2.68-6.07-.62-6.21Z" transform="translate(-13.5 -12.82)"/><path class="cls-9" d="M316,272.38c.22,0,.43.06.64.08C315.81,272.34,315.42,272.29,316,272.38Z" transform="translate(-13.5 -12.82)"/><polygon class="cls-26" points="301.99 251.53 295.38 252.32 295.07 249.28 301.69 248.49 301.99 251.53"/><polygon class="cls-26" points="313.45 250.82 306.83 251.6 306.53 248.56 313.14 247.77 313.45 250.82"/><path class="cls-2" d="M311.9,166.68l-.1,2.16s2.59,1,4.22.46a3.77,3.77,0,0,0,2.19-2.19l-.55-1.6S316.2,168,311.9,166.68Z" transform="translate(-13.5 -12.82)"/><path class="cls-16" d="M313.16,148.86s-3.81,3.76.86,7.62c0,0,1.73,1.37-.83,4.72a2,2,0,0,0,0,2.36c1.55,2,4.94,4.91,8.56-1.25,1.68-2.85,1.9-6.2.5-8.19a9.27,9.27,0,0,0-4.64-3.75C315.74,149.66,314.76,149.91,313.16,148.86Z" transform="translate(-13.5 -12.82)"/><path class="cls-16" d="M313.18,161.19c-4.5,4.25-4.24,10.09-4.23,11,0,4.7,4.35,8.47,4.44,9.57.27,3-4.17,9.38-3.54,12.53.92,4.56,8.34,6.22,15.62,2.9,8.32-3.8,9.4-15.9,2-24.22-3.29-3.68-2.21-10.9-2.84-16.16-.38-3.17-1.23.18-2.64-2.17-2.09-3.51-7.25-4.71-8-3.64s2.54,3.62,1.81,6.68C315.36,159.21,314.91,159.56,313.18,161.19Z" transform="translate(-13.5 -12.82)"/><path class="cls-17" d="M315.4,157.65a1.51,1.51,0,0,1-.76,1.87,1.27,1.27,0,0,1-1.83-.41,1.51,1.51,0,0,1,.75-1.87A1.27,1.27,0,0,1,315.4,157.65Z" transform="translate(-13.5 -12.82)"/><path class="cls-6" d="M324.18,159.08l-10.95-9.46a6.59,6.59,0,0,1,9.8-1.26,8.13,8.13,0,0,1,1.15,10.72" transform="translate(-13.5 -12.82)"/><path class="cls-9" d="M320.68,147a6.81,6.81,0,0,1,2.35,1.32,8.13,8.13,0,0,1,1.15,10.72l-2.85-2.46A8.16,8.16,0,0,0,320.68,147Z" transform="translate(-13.5 -12.82)"/><polygon class="cls-9" points="310.2 146.91 311.39 145.17 298.42 134.59 297.23 136.34 310.2 146.91"/></svg>